<svg width="192" height="192" viewBox="0 0 192 192" fill="none" xmlns="http://www.w3.org/2000/svg">
  <!-- Background circle -->
  <circle cx="96" cy="96" r="96" fill="#4A6FA5"/>
  
  <!-- Face -->
  <circle cx="96" cy="96" r="40" fill="#FDBCB4"/>
  
  <!-- Hair -->
  <path d="M56 80C56 60 72 48 96 48C120 48 136 60 136 80V88C136 92 132 96 128 96H64C60 96 56 92 56 88V80Z" fill="#4A4A4A"/>
  
  <!-- Glasses -->
  <circle cx="80" cy="96" r="12" fill="none" stroke="#333333" stroke-width="3"/>
  <circle cx="112" cy="96" r="12" fill="none" stroke="#333333" stroke-width="3"/>
  <line x1="92" y1="96" x2="100" y2="96" stroke="#333333" stroke-width="3"/>
  
  <!-- Eyes -->
  <circle cx="80" cy="96" r="3" fill="#333333"/>
  <circle cx="112" cy="96" r="3" fill="#333333"/>
  
  <!-- Mouth -->
  <path d="M86 108C86 108 96 114 106 108" stroke="#333333" stroke-width="2" stroke-linecap="round"/>
  
  <!-- Lab coat -->
  <path d="M56 136C56 136 64 144 96 144C128 144 136 136 136 136V168C136 172 132 176 128 176H64C60 176 56 172 56 168V136Z" fill="white"/>
  <path d="M56 136C56 136 64 144 96 144C128 144 136 136 136 136" stroke="#E0E0E0" stroke-width="1"/>
  
  <!-- Tie -->
  <path d="M88 144L96 168L104 144" fill="#FF6B6B"/>
  <circle cx="96" cy="168" r="4" fill="#FF6B6B"/>
  
  <!-- Book -->
  <rect x="120" y="152" width="24" height="32" rx="2" fill="#4ECDC4"/>
  <line x1="124" y1="160" x2="140" y2="160" stroke="white" stroke-width="2"/>
  <line x1="124" y1="166" x2="140" y2="166" stroke="white" stroke-width="2"/>
  <line x1="124" y1="172" x2="136" y2="172" stroke="white" stroke-width="2"/>
</svg>